<svg xmlns="http://www.w3.org/2000/svg" version="1.1" xmlns:xlink="http://www.w3.org/1999/xlink" xmlns:svgjs="http://svgjs.dev/svgjs" width="1000" height="1125" viewBox="0 0 1000 1125"><g transform="matrix(1,0,0,1,0.000095367431640625,0)"><svg viewBox="0 0 320 360" data-background-color="#ffffff" preserveAspectRatio="xMidYMid meet" height="1125" width="1000" xmlns="http://www.w3.org/2000/svg" xmlns:xlink="http://www.w3.org/1999/xlink"><g id="tight-bounds" transform="matrix(1,0,0,1,-0.000030517578125,0)"><svg viewBox="0 0 320 360" height="360" width="320"><g><svg></svg></g><g><svg viewBox="0 0 320 360" height="360" width="320"><g><path xmlns="http://www.w3.org/2000/svg" d="M219.58 41.008c0.707 0 6.365 2.829 9.547 3.89-1.061 0.354-3.536-0.707-6.365-1.768 0.707 0 2.122 0.354 3.536 1.06-0.707-0.707-6.011-2.475-6.718-3.182M166.895 30.047c1.061-0.354 13.436 1.414 19.094 1.768 0.354-0.354-0.707-0.354-2.122-0.707 1.768-0.354 5.304 0.707 7.779 1.06-7.425 0.354-15.558-1.768-22.629-1.06-2.475 0-0.707-0.707-2.122-1.061M156.641 30.047c6.365 0 11.315 0 2.121 0.707-1.061-0.354-2.475-0.354-2.121-0.707M256.707 59.395c0.707 0 3.536 3.182 4.95 4.243-0.354 0.354-3.182-2.475-4.596-3.536 0.354 0.354 0 0-0.354-0.707M249.635 54.798c-2.829-2.475-3.889-2.475-4.243-3.889 2.475 1.414 4.243 2.829 4.243 3.889M204.022 32.522c0.354-0.354 1.061 0.354 2.829 0.707-2.122-0.354-1.768 0-1.061 0.707-2.475-0.354-3.182-0.707-2.475-1.414 1.414 0.707 1.768 0.354 0.707 0M103.602 36.765c0-0.354 1.414-1.061 2.475-1.414-1.061 0.707-0.707 1.061 1.061 0.353 0 0.354-2.122 1.061-3.536 1.768 0.707-0.354 1.414-1.414 0-0.707M211.094 28.986c-1.061 0.354-4.95-1.768-8.84-2.475-2.122-0.707 8.486 1.768 8.84 2.475M2.475 203.66c2.122 8.84 0.707 8.486 0 0M2.829 150.621c0.354-1.414 0.707-5.304 1.06-4.95-1.061 8.486-2.829 12.376-3.182 18.74 1.061-5.657-0.354 3.182-0.707 5.304 0.354 2.829 0.354-1.768 1.061-1.06 0.707 1.061-1.414 15.912-0.707 7.779-0.707 7.425 0 15.558 1.414 17.679-1.768 11.315 7.072 36.773 8.84 42.077 0.354 0.354 0-1.768 0.707-0.353 0.707 4.597 3.889 7.779 4.95 12.729 1.061 1.414 5.304 9.193 6.011 10.962 1.414 2.829 2.122 2.475 3.536 5.303 4.243 8.133 10.961 15.912 17.326 23.337 20.508 24.044 51.978 43.845 86.984 50.918 35.006 7.425 71.779 2.122 100.419-11.669 1.768-1.061 1.414-1.414 3.536-2.122 9.901-3.182 21.923-13.436 28.641-17.326 3.182-3.536 11.669-9.547 12.73-13.082 6.011-4.95 12.022-13.083 15.204-18.387 1.768-2.829 3.182-2.829 3.889-4.597-0.354 0 5.657-7.425 7.426-11.668-0.707 0-1.768 2.122-1.768 0 12.729-24.398 19.801-57.282 15.911-79.912 0.707 27.934-6.365 59.05-19.801 78.851-6.011 12.729-18.387 26.519-29.701 36.42-1.768 1.768-3.536 3.889-5.658 5.304-6.718 5.657-14.144 10.254-21.922 14.497-18.387 10.254-38.895 19.094-62.94 19.447 41.37-3.536 78.497-24.398 99.006-49.856-15.558 15.204-22.276 21.215-39.602 30.055-1.414 2.475-13.083 7.425-20.862 9.547 4.597-2.122 14.144-5.657 17.326-8.486-25.812 12.376-54.453 19.448-81.326 15.558 10.254 0 24.751 0.354 38.541-2.121 2.122-0.707 3.182-1.414 5.658-1.768 26.873-6.011 52.685-19.094 71.072-37.481-10.608 9.547-26.519 20.862-36.774 24.398 9.547-5.304 26.873-15.558 32.53-23.337-11.315 11.315-32.53 22.63-45.966 27.58-2.122 0.354 1.414-1.414-2.122 0-4.243 1.061-2.475 1.061-3.536 1.768-16.265 4.597-35.006 8.486-50.563 7.072-2.829-0.354-3.889-1.061-6.365-1.061-2.829-0.354-5.304-0.354-8.486-0.354-12.376-1.414-25.812-6.365-35.713-10.607-5.304-2.475-10.608-4.243-15.912-7.426-4.243-2.475-7.779-5.304-11.314-8.132-13.436-9.901-24.751-19.801-35.36-33.945-19.094-26.519-28.994-59.757-27.58-92.641 1.414-32.884 14.497-65.061 35.359-88.752-1.061 1.061 1.414-2.475 3.536-4.596 0 0.707-0.354 1.768 2.122-0.707 2.122-2.475-0.707-0.707 0.353-2.122 21.923-24.044 60.111-43.492 99.36-44.199 1.414-1.061 3.889-2.475 6.718-1.768 0 0.354-1.768 0.354-1.768 0.354 3.889-0.354 7.425-0.354 9.193 0.353 0.354-0.354-1.414-0.707 0-0.707 2.475 0.707 3.182 0 4.597 0.707-1.061 0-2.122 0-2.829 0.354 8.84 0 14.497 2.122 23.337 2.829-4.597-1.061-5.657-1.061-9.193-2.122 3.889 0.707 5.657 1.414 7.425 1.061-0.707 0-0.354-1.061 0.354-0.707 7.072 1.768 7.779 2.475 15.204 4.95 0.707-0.707-3.182-1.061-4.243-2.122 7.072 2.475 13.436 4.243 17.68 7.072-1.414-1.061-5.657-2.475-8.84-3.889-0.354 0.354 1.061 0.707 1.414 1.414-3.536-1.768-8.486-3.536-13.436-4.243 4.243 1.061 7.072 2.475 8.84 3.182-3.889-0.707-8.84-3.182-14.498-4.243 9.193 2.829 26.519 9.193 37.127 14.851-3.889-2.475-8.486-4.243-10.961-5.657 2.122 0.354 4.597 1.768 4.597 1.06 2.475 1.061 5.657 3.536 7.425 3.89-3.182-2.122-9.547-5.304-11.668-6.365 26.519 12.022 50.21 32.177 65.414 57.989 1.414 2.475 3.536 8.133 5.304 8.84-0.354-1.768-1.768-2.829-3.182-5.657 0.707 0 0.707-1.061 0-2.122-1.414-1.768 0 1.414-1.415-0.354-6.365-11.669-14.144-21.923-26.165-33.237 6.718 6.365 1.768 1.768 0.353-0.354 9.193 8.133 19.801 21.923 24.398 28.995-0.707-1.061-1.061-1.768-0.707-1.768 8.486 14.497 13.79 27.58 19.094 46.32 0.354 0.354 0-1.414 0.707-0.353 3.536 14.851 4.597 27.227 4.243 38.541 2.829-19.094-3.536-48.796-14.851-72.133-1.414-2.829-1.414-0.707-2.829-3.889 0-1.061-1.061-3.182-1.768-4.597-14.144-23.337-31.47-39.956-51.978-53.038 1.414 0.707 4.243 2.829 4.244 2.475-38.188-25.105-82.387-28.641-118.807-20.862-2.475 1.061-3.536 2.122-6.365 3.536 5.304-1.768 8.486-2.122 13.437-3.183 1.061-1.061-4.597 0.354-2.122-0.707 0.354 0.354 4.95-0.707 6.011-0.353 0 0.354-1.414 0.707-1.768 1.06 11.669-2.475 23.691-2.829 33.945-2.121-6.011 0.354-16.972-0.707-20.508 1.061 3.536-0.354 8.486-0.707 11.668-0.354-4.243 0-12.022 0.354-15.558 0.707-0.354-0.354 5.657-1.061 1.768-1.06-1.768 0.354-4.597 0.354-5.657 1.414-30.409 2.829-60.111 18.74-80.973 37.481-4.243 3.536-9.193 7.425-12.375 11.314-7.779 8.84-12.729 17.68-18.387 25.459 3.536-7.425 11.315-18.74 20.508-28.287 9.193-9.547 19.094-17.68 24.398-21.923 0 1.414 8.486-5.304 11.669-7.425-2.122 1.768 1.414-0.707 2.121-0.354 11.315-6.718 20.508-9.193 30.763-13.083-2.475 0.707-4.597 1.414-4.951 1.061 2.475-0.707 3.889-1.414 3.536-1.768-9.901 2.829-25.459 9.547-37.834 16.972 22.276-15.204 50.564-24.398 78.497-24.751 27.934-0.707 55.16 6.365 76.729 17.68 14.497 6.365 28.287 18.033 39.249 29.348 3.182 2.829 0.707-0.707 5.304 4.243-1.414-0.707-2.475-1.414-0.707 0.707 2.829 3.182-0.707-2.475 3.889 3.182-0.354 0-1.768-1.768-1.768-1.061 12.376 10.961 21.923 30.762 27.58 43.846-1.414-5.304-4.95-12.729-7.779-18.033 8.486 15.558 11.315 24.751 14.851 38.541 1.414 1.061-0.707-4.95 0.707-2.121 0.354 2.122 0.707 8.84 2.122 9.9-1.061-6.718-2.829-14.851-4.243-16.265 1.061 0.707-1.768-8.133-3.536-10.254-0.707-5.657-5.657-15.558-9.901-22.984-15.204-29.702-42.431-54.099-72.839-67.536 0-0.707-1.768-1.414-2.476-2.121-30.055-12.729-66.122-16.265-100.773-8.133-35.006 8.486-67.889 28.641-91.227 57.636 1.061-3.536 9.901-10.254 10.255-13.083-10.254 10.961-21.215 25.459-28.641 41.016-7.779 15.558-12.022 31.47-13.79 43.138" fill="#ffffff" fill-rule="nonzero" stroke="none" stroke-width="1" stroke-linecap="butt" stroke-linejoin="miter" stroke-miterlimit="10" stroke-dasharray="" stroke-dashoffset="0" font-family="none" font-weight="none" font-size="none" text-anchor="none" style="mix-blend-mode: normal" data-fill-palette-color="tertiary"></path></g><g transform="matrix(1,0,0,1,48,168.59685681277497)"><svg viewBox="0 0 224 22.806286374450053" height="22.806286374450053" width="224"><g><svg viewBox="0 0 595.1649866243209 60.59599609374999" height="22.806286374450053" width="224"><g><svg viewBox="0 0 595.1649866243209 60.59599609374999" height="60.59599609374999" width="595.1649866243209"><g id="textblocktransform"><svg viewBox="0 0 595.1649866243209 60.59599609374999" height="60.59599609374999" width="595.1649866243209" id="textblock"><g><svg viewBox="0 0 595.1649866243209 60.59599609374999" height="60.59599609374999" width="595.1649866243209"><g><svg><g></g><g></g></svg></g><g><svg><g></g><g><svg></svg></g></svg></g><g id="text-0"><svg viewBox="0 0 595.1649866243209 60.59599609374999" height="60.59599609374999" width="595.1649866243209"><g transform="matrix(1,0,0,1,0,11.572412109374994)"><svg width="176.24511718749997" viewBox="4.320000171661377 -36.11000061035156 176.239990234375 37.45000076293945" height="37.451171875" data-palette-color="#ffffff"><path d="M6.52-19.48L6.52-3.49 6.59-1.05Q6.59-0.42 6.25-0.07 5.91 0.27 5.43 0.27 4.96 0.27 4.64-0.05 4.32-0.37 4.32-0.74 4.32-1.12 4.38-1.45 4.44-1.78 4.49-2.2L4.49-2.2Q4.61-2.91 4.61-5.74L4.61-5.74 4.61-36.11 31.15-15.06 31.15-29.61Q31.15-31.27 31.05-31.98L31.05-31.98Q30.93-33.13 30.93-33.59L30.93-33.59Q30.93-34.81 31.98-34.81L31.98-34.81Q32.4-34.81 32.78-34.52 33.15-34.23 33.15-33.67L33.15-33.67 33.15-32.81 33.06-29.27 33.06 1.34 6.52-19.48ZM54.73-4.35L47.9-4.35Q43.43-4.35 41.79-4.42L41.79-4.42 41.09-2.73Q40.77-2.03 40.5-1.25L40.5-1.25Q39.94 0.27 38.94 0.27L38.94 0.27Q38.47 0.27 38.18-0.02 37.89-0.32 37.89-0.63L37.89-0.63Q37.89-1.17 38.35-1.83L38.35-1.83Q39.08-2.86 39.79-4.52L39.79-4.52Q37.69-4.71 37.69-5.74 37.69-6.76 38.89-6.76L38.89-6.76Q39.62-6.76 40.6-6.52L40.6-6.52 52.78-36.11 69.48 0 56.76 0 54.73-4.35ZM47.82-19.29L42.58-6.32Q44.92-6.13 46.77-6.13L46.77-6.13 53.93-6.13 47.82-19.29ZM74.87 0L74.87-34.55 85.03-34.55Q92.13-34.55 95.45-33.54L95.45-33.54Q99.24-32.37 101.3-30.54 103.36-28.71 104.54-26.76L104.54-26.76Q106.93-22.78 106.93-17.72L106.93-17.72Q106.93-9.77 101.22-4.83L101.22-4.83Q97.16-1.29 91.67-0.46L91.67-0.46Q88.62 0 83.12 0L83.12 0 74.87 0ZM87.32-32.69L87.32-2.03Q87.71-2 88.03-2L88.03-2 88.59-2Q95.21-2 99.9-6.13L99.9-6.13Q104.85-10.47 104.85-17.68L104.85-17.68Q104.85-22.22 102.68-25.85L102.68-25.85Q99.53-31.15 92.72-32.28L92.72-32.28Q90.5-32.64 87.32-32.69L87.32-32.69ZM143.84-33.52L143.84-33.52 143.69-30.49 143.69-15.89Q143.69-8.67 139.54-4.15L139.54-4.15Q135.3 0.46 128.26 0.46L128.26 0.46Q120.74 0.46 116.55-4.25L116.55-4.25Q112.64-8.57 112.64-15.33L112.64-15.33 112.64-34.55 125.11-34.55 125.11-1.61Q126.99-1.34 129.25-1.34 131.51-1.34 133.84-2.25 136.17-3.15 137.93-5.08L137.93-5.08Q141.74-9.23 141.79-17.21L141.79-17.21 141.79-30.44Q141.79-31.18 141.68-32.18 141.57-33.18 141.57-33.54L141.57-33.54Q141.57-34.81 142.77-34.81L142.77-34.81Q143.84-34.81 143.84-33.52ZM153.92-19.48L153.92-3.49 153.99-1.05Q153.99-0.42 153.65-0.07 153.31 0.27 152.83 0.27 152.36 0.27 152.04-0.05 151.72-0.37 151.72-0.74 151.72-1.12 151.78-1.45 151.85-1.78 151.89-2.2L151.89-2.2Q152.02-2.91 152.02-5.74L152.02-5.74 152.02-36.11 178.55-15.06 178.55-29.61Q178.55-31.27 178.46-31.98L178.46-31.98Q178.33-33.13 178.33-33.59L178.33-33.59Q178.33-34.81 179.38-34.81L179.38-34.81Q179.8-34.81 180.18-34.52 180.56-34.23 180.56-33.67L180.56-33.67 180.56-32.81 180.46-29.27 180.46 1.34 153.92-19.48Z" opacity="1" transform="matrix(1,0,0,1,0,0)" fill="#ffffff" class="undefined-p-0"></path></svg></g><g><svg xmlns="http://www.w3.org/2000/svg" xmlns:xlink="http://www.w3.org/1999/xlink" version="1.1" x="190.55146484374998" y="0" viewBox="5.412825107574463 5.195577621459961 79.76930236816406 79.77027130126953" enable-background="new 0 0 90 90" xml:space="preserve" height="60.59599609374999" width="60.59526006182085" class="icon-s-0" data-fill-palette-color="accent" id="s-0"></svg></g><g transform="matrix(1,0,0,1,265.4530725618208,11.572412109374994)"><svg width="329.7119140625" viewBox="4.320000171661377 -36.11000061035156 329.69000244140625 37.45000076293945" height="37.451171875" data-palette-color="#ffffff"><path d="M20.78-11.84L20.78-11.84 22.78-11.69Q27.08-11.69 30.08-14.7L30.08-14.7Q33.08-17.7 33.08-22.17L33.08-22.17Q33.08-28.03 27.93-30.86L27.93-30.86Q25.1-32.42 21.88-32.67L21.88-32.67Q20.51-32.79 19.34-32.79L19.34-32.79 17.68-32.79Q17.16-32.79 16.77-32.76L16.77-32.76 16.77 0 4.32 0 4.32-34.55Q10.03-34.55 13.57-34.55 17.11-34.55 18.19-34.52 19.26-34.5 20.1-34.46 20.95-34.42 21.68-34.38L21.68-34.38Q22.75-34.28 24.72-33.91 26.68-33.54 28.61-32.52 30.54-31.49 31.93-29.98L31.93-29.98Q34.94-26.76 34.94-22.31L34.94-22.31Q34.94-17.92 32.15-14.55L32.15-14.55Q29.3-11.11 24.54-10.11L24.54-10.11Q26.81-3.08 30.32-1.71L30.32-1.71Q31.4-1.29 32.47-1.29L32.47-1.29 34.4-1.76Q35.3-1.76 35.3-0.83L35.3-0.83Q35.3 0.46 32.28 0.46L32.28 0.46Q30.08 0.46 28.25-0.76L28.25-0.76Q25.39-2.47 23.39-7.4L23.39-7.4 22.68-9.13Q22.51-9.55 22.38-9.64 22.24-9.74 21.91-9.74 21.58-9.74 21.34-9.69L21.34-9.69 20.75-9.67Q19.78-9.67 19.42-10.03 19.07-10.4 19.07-10.79L19.07-10.79Q19.07-11.84 20.78-11.84ZM71.41-33.52L71.41-33.52 71.26-30.49 71.26-15.89Q71.26-8.67 67.11-4.15L67.11-4.15Q62.86 0.46 55.83 0.46L55.83 0.46Q48.31 0.46 44.11-4.25L44.11-4.25Q40.21-8.57 40.21-15.33L40.21-15.33 40.21-34.55 52.68-34.55 52.68-1.61Q54.56-1.34 56.82-1.34 59.08-1.34 61.41-2.25 63.74-3.15 65.5-5.08L65.5-5.08Q69.31-9.23 69.36-17.21L69.36-17.21 69.36-30.44Q69.36-31.18 69.25-32.18 69.14-33.18 69.14-33.54L69.14-33.54Q69.14-34.81 70.33-34.81L70.33-34.81Q71.41-34.81 71.41-33.52ZM95.45-10.13L95.45-10.13 97.63-10.03Q102.36-10.03 105.44-13.16L105.44-13.16Q108.56-16.31 108.71-21.31L108.71-21.31Q108.98-29.03 101.29-31.74L101.29-31.74Q98.41-32.76 93.79-32.76L93.79-32.76 91.74-32.76 91.74 0 79.29 0 79.29-34.55 88.64-34.55Q96.21-34.55 97.77-34.33 99.34-34.11 101.03-33.76 102.73-33.42 104.69-32.28 106.66-31.13 108.03-29.54L108.03-29.54Q110.79-26.32 110.69-21.97L110.69-21.97Q110.54-16.43 107.44-12.74L107.44-12.74Q104.29-9.03 98.75-8.15L98.75-8.15Q97.14-7.93 96.21-7.93L96.21-7.93Q94.01-7.93 94.01-9.13L94.01-9.13Q94.01-9.57 94.4-9.85 94.79-10.13 95.45-10.13ZM129.26-4.35L122.43-4.35Q117.96-4.35 116.33-4.42L116.33-4.42 115.62-2.73Q115.3-2.03 115.03-1.25L115.03-1.25Q114.47 0.27 113.47 0.27L113.47 0.27Q113.01 0.27 112.71-0.02 112.42-0.32 112.42-0.63L112.42-0.63Q112.42-1.17 112.88-1.83L112.88-1.83Q113.62-2.86 114.32-4.52L114.32-4.52Q112.22-4.71 112.22-5.74 112.22-6.76 113.42-6.76L113.42-6.76Q114.15-6.76 115.13-6.52L115.13-6.52 127.31-36.11 144.01 0 131.29 0 129.26-4.35ZM122.36-19.29L117.11-6.32Q119.45-6.13 121.31-6.13L121.31-6.13 128.46-6.13 122.36-19.29ZM149.4-1.76L149.4-1.76Q148.55-2.25 147.93-2.78 147.3-3.32 147.3-3.93L147.3-3.93Q147.3-5.1 148.31-5.1L148.31-5.1Q148.96-5.1 149.77-4.37 150.58-3.64 151.58-3.09 152.58-2.54 153.75-2.15L153.75-2.15Q156.17-1.34 158.22-1.34 160.27-1.34 161.38-1.61 162.49-1.88 163.25-2.34L163.25-2.34Q164.86-3.34 164.86-4.91L164.86-4.91Q164.86-6.35 163.47-7.81L163.47-7.81Q162.29-9.06 160.15-10.79L160.15-10.79 155.97-14.06Q149.7-18.9 148.57-22.9L148.57-22.9Q148.18-24.29 148.18-26 148.18-27.71 148.95-29.37 149.72-31.03 151.24-32.28L151.24-32.28Q154.48-34.99 160.07-34.99L160.07-34.99Q162.93-34.99 165.2-34.14 167.47-33.3 168.3-32.64 169.13-31.98 169.13-31.45L169.13-31.45Q169.13-30.32 168.2-30.32L168.2-30.32Q167.67-30.32 167.06-30.86 166.45-31.4 165.7-31.8 164.96-32.2 164-32.52L164-32.52Q161.95-33.2 159.98-33.2L159.98-33.2Q156.34-33.2 156.34-30.81L156.34-30.81Q156.34-29.81 157-28.96L157-28.96Q158.17-27.47 161.57-24.69 164.98-21.92 167.04-19.85 169.11-17.77 170.18-16.11L170.18-16.11Q171.89-13.5 171.89-10.68 171.89-7.86 170.9-5.9 169.91-3.93 168.13-2.51L168.13-2.51Q164.37 0.46 158.8 0.46 153.24 0.46 149.4-1.76ZM178.04 0L178.04-34.55 190.49-34.55 190.49 0 178.04 0ZM200.89-19.48L200.89-3.49 200.96-1.05Q200.96-0.42 200.62-0.07 200.28 0.27 199.8 0.27 199.33 0.27 199.01-0.05 198.69-0.37 198.69-0.74 198.69-1.12 198.75-1.45 198.81-1.78 198.86-2.2L198.86-2.2Q198.98-2.91 198.98-5.74L198.98-5.74 198.98-36.11 225.52-15.06 225.52-29.61Q225.52-31.27 225.42-31.98L225.42-31.98Q225.3-33.13 225.3-33.59L225.3-33.59Q225.3-34.81 226.35-34.81L226.35-34.81Q226.77-34.81 227.15-34.52 227.52-34.23 227.52-33.67L227.52-33.67 227.52-32.81 227.43-29.27 227.43 1.34 200.89-19.48ZM265.14-1.78L265.14-1.78 265.19-3.47 265.19-7.32Q261.75-1.59 255.04-0.02L255.04-0.02Q252.91 0.46 250.09 0.46 247.27 0.46 244.26-0.71 241.24-1.88 238.97-4.1L238.97-4.1Q233.99-8.94 233.99-16.82L233.99-16.82Q233.99-24.37 239.26-29.59L239.26-29.59Q244.76-34.99 253.06-34.99L253.06-34.99Q257.26-34.99 260.65-33.42L260.65-33.42Q262.73-32.5 263.58-31.7 264.44-30.91 264.44-30.43 264.44-29.96 264.14-29.61 263.85-29.27 263.32-29.27 262.8-29.27 262.17-29.83L262.17-29.83Q260.29-31.49 258.86-32.01 257.43-32.52 256.57-32.74 255.72-32.96 255.04-33.06L255.04-33.06Q253.99-33.2 252.55-33.2 251.11-33.2 249.88-32.96L249.88-32.96 249.88-1.37Q250.15-1.34 250.42-1.34L250.42-1.34 250.91-1.34Q258.16-1.34 262.65-6.84L262.65-6.84Q264.19-8.72 265.19-11.28L265.19-11.28 265.19-13.62Q265.19-13.62 265.07-15.82L265.07-15.82Q265.07-17.11 266.1-17.11L266.1-17.11Q266.63-17.11 266.93-16.76 267.22-16.41 267.22-15.89L267.22-15.89 267.07-13.87 267.07-4.79 267.22-1Q267.22-0.42 266.89-0.07 266.56 0.27 266.12 0.27L266.12 0.27Q265.05 0.27 265.05-0.85L265.05-0.85Q265.05-1.15 265.14-1.78ZM302.32-23.58L302.32-3.54 302.4-1.05Q302.4-0.42 302.03-0.07 301.66 0.27 301.19 0.27 300.71 0.27 300.43-0.05 300.15-0.37 300.15-0.85L300.15-0.85Q300.15-1.34 300.27-1.95L300.27-1.95Q300.44-2.71 300.44-5.74L300.44-5.74 300.44-23.56 288.16-23.56 288.16 0 275.69 0 275.69-34.55 288.16-34.55 288.16-25.34Q293.44-25.34 296.57-25.34 299.71-25.34 300.44-25.37L300.44-25.37 300.44-29.61Q300.44-31.74 300.37-32.37L300.37-32.37 300.27-33.11Q300.25-33.45 300.25-33.69L300.25-33.69Q300.25-34.81 301.27-34.81L301.27-34.81Q301.64-34.81 302.03-34.52 302.42-34.23 302.42-33.54L302.42-33.54 302.32-30.42 302.32-25.46 303.86-25.68Q304.3-25.68 304.59-25.43 304.89-25.17 304.89-24.76L304.89-24.76Q304.89-23.8 303.37-23.68L303.37-23.68Q303.11-23.63 302.85-23.62 302.59-23.61 302.32-23.58L302.32-23.58ZM332.77-2.1L332.77-2.1Q334.01-2.1 334.01-1.12L334.01-1.12Q334.01-0.68 333.47-0.34 332.94 0 331.62 0L331.62 0 310.94 0 310.94-34.55Q320.56-34.55 330.18-34.55L330.18-34.55 332.18-34.62Q334.01-34.62 334.01-33.54L334.01-33.54Q334.01-33.13 333.71-32.78 333.4-32.42 333.01-32.42L333.01-32.42Q332.37-32.42 331.67-32.57L331.67-32.57Q330.62-32.79 328.79-32.79L328.79-32.79 323.39-32.79 323.39-25.34 327.83-25.34Q327.83-25.34 330.84-25.46L330.84-25.46Q331.37-25.46 331.75-25.21 332.13-24.95 332.13-24.49L332.13-24.49Q332.13-23.46 330.76-23.46L330.76-23.46 329.71-23.49Q328.91-23.56 328.37-23.56L328.37-23.56 323.39-23.56 323.39-1.78 328.79-1.78Q330.59-1.78 331.35-1.93L331.35-1.93Q332.25-2.1 332.77-2.1Z" opacity="1" transform="matrix(1,0,0,1,0,0)" fill="#ffffff" class="undefined-p-1"></path></svg></g></svg></g></svg></g></svg></g></svg></g></svg></g></svg></g></svg></g><defs></defs><mask id="4f71ad12-d457-4382-977d-54584ab1c520"><g id="SvgjsG1264"><svg viewBox="0 0 320 360" height="360" width="320"><g><svg></svg></g><g><svg viewBox="0 0 320 360" height="360" width="320"><g></g><g transform="matrix(1,0,0,1,48,168.59685681277497)"><svg viewBox="0 0 224 22.806286374450053" height="22.806286374450053" width="224"><g><svg viewBox="0 0 595.1649866243209 60.59599609374999" height="22.806286374450053" width="224"><g><svg viewBox="0 0 595.1649866243209 60.59599609374999" height="60.59599609374999" width="595.1649866243209"><g id="SvgjsG1263"><svg viewBox="0 0 595.1649866243209 60.59599609374999" height="60.59599609374999" width="595.1649866243209" id="SvgjsSvg1262"><g><svg viewBox="0 0 595.1649866243209 60.59599609374999" height="60.59599609374999" width="595.1649866243209"><g><svg><g></g><g></g></svg></g><g><svg><g></g><g><svg></svg></g></svg></g><g id="SvgjsG1261"><svg viewBox="0 0 595.1649866243209 60.59599609374999" height="60.59599609374999" width="595.1649866243209"><g transform="matrix(1,0,0,1,0,11.572412109374994)"><svg width="176.24511718749997" viewBox="4.320000171661377 -36.11000061035156 176.239990234375 37.45000076293945" height="37.451171875" data-palette-color="#ffffff"></svg></g><g><svg xmlns="http://www.w3.org/2000/svg" xmlns:xlink="http://www.w3.org/1999/xlink" version="1.1" x="190.55146484374998" y="0" viewBox="5.412825107574463 5.195577621459961 79.76930236816406 79.77027130126953" enable-background="new 0 0 90 90" xml:space="preserve" height="60.59599609374999" width="60.59526006182085" class="icon-s-0" data-fill-palette-color="accent" id="SvgjsSvg1260"><path d="M54.624 83.27c-10.792 1.801-22.246-1.411-30.727-8.272-8.062-6.522-13.088-16.744-12.728-27.17 0.349-10.096 5.499-20.182 14.078-25.707 8.769-5.647 20.783-5.62 29.498 0.129 8.154 5.379 12.661 15.857 9.907 25.391-1.424 4.931-4.572 9.475-9.052 12.082-4.663 2.714-10.561 3.268-15.615 1.341-4.544-1.733-8.418-5.448-9.851-10.154-1.47-4.826-0.243-10.416 3.327-14.027 3.452-3.492 8.998-4.743 13.484-2.567 4.259 2.065 6.884 7.148 5.307 11.755-0.85 2.483-2.859 4.611-5.423 5.317-2.69 0.741-5.774-0.221-7.439-2.493-1.629-2.222-1.495-5.503 0.597-7.389 1.054-0.95 2.599-1.429 3.984-1.015 0.41 0.122 2.233 0.566 2.058 1.209 0.087-0.652-1.341-0.82-1.755-0.934-1.29-0.356-2.733 0.004-3.719 0.904-1.739 1.586-1.995 4.459-0.597 6.34 1.417 1.906 4.102 2.721 6.348 1.971 2.287-0.765 3.875-3.013 4.245-5.344 0.746-4.703-3.812-8.759-8.323-8.569-4.774 0.201-8.548 4.373-9.111 8.971-1.056 8.621 8.8 14.488 16.466 12.536 8.546-2.177 12.86-12.372 10.766-20.465-2.34-9.045-11.891-14.664-20.877-14.543-9.785 0.131-18.28 7.23-21.955 16.011-4.038 9.649-2.194 21.17 4.201 29.364 6.485 8.309 16.93 13.113 27.352 13.664 5.766 0.305 11.749-0.537 17.004-3.006 4.955-2.328 8.907-6.258 11.976-10.734 6.303-9.194 8.662-20.938 6.135-31.824C79.845 17.355 61.052 3.689 41.936 5.329 23.164 6.939 7.154 22.991 5.551 41.756c-0.918 10.74 2.777 21.76 9.928 29.817 7.078 7.976 17.424 12.875 28.071 13.353 6.118 0.275 12.303-0.876 17.903-3.359-2.472 0.844-4.993 1.695-7.622 1.838 0.506-0.028 0.982-0.246 1.492-0.242-1.79-0.014-3.465 0.776-5.242 0.87 1.034-0.055 2.103-0.271 3.095-0.566 0.337-0.101 1.458-0.578 1.755-0.242-0.207-0.235-1.358 0.182-1.613 0.243-0.926 0.221-1.953 0.452-2.902 0.51 0.426-0.026 4.536-0.711 4.53-0.755 0.008 0.065-4.022 0.607-4.613 0.769 0.714-0.196 1.505-0.245 2.235-0.367 0.292-0.048 2.164-0.591 2.374-0.402C54.91 83.194 54.661 83.264 54.624 83.27 43.928 85.055 57.114 82.88 54.624 83.27z" fill="white"></path></svg></g><g transform="matrix(1,0,0,1,265.4530725618208,11.572412109374994)"><svg width="329.7119140625" viewBox="4.320000171661377 -36.11000061035156 329.69000244140625 37.45000076293945" height="37.451171875" data-palette-color="#ffffff"></svg></g></svg></g></svg></g></svg></g></svg></g></svg></g></svg></g></svg></g><defs></defs></svg></g></mask><linearGradient x1="0.054" x2="0.941" y1="0.5" y2="0.5" id="47ff823c-1276-4351-ad8b-cf9170aaeada"><stop stop-color="#0f3054" offset="0"></stop><stop stop-color="#3b8dcb" offset="0.498"></stop><stop stop-color="#0f3054" offset="1"></stop></linearGradient><rect width="320.00006103515625" height="360" fill="url(#47ff823c-1276-4351-ad8b-cf9170aaeada)" mask="url(#4f71ad12-d457-4382-977d-54584ab1c520)" data-fill-palette-color="accent"></rect></svg><rect width="320" height="360" fill="none" stroke="none" visibility="hidden"></rect></g></svg></g></svg>